<svg version="1.1" id="Layer_1" xmlns="http://www.w3.org/2000/svg" xmlns:xlink="http://www.w3.org/1999/xlink" x="0px" y="0px"
	 width="100%" viewBox="0 0 792 201" enable-background="new 0 0 792 201" xml:space="preserve">
<path fill="transparent" opacity="1.000000" stroke="none" 
	d="
M142.000000,0.999999 
	C358.945648,1.000000 575.891296,1.000000 792.918457,1.000000 
	C792.918457,67.928764 792.918457,134.857666 792.918457,201.893280 
	C529.000000,201.893280 265.000031,201.893280 1.000000,201.893280 
	C1.000000,178.251328 1.000000,154.590668 1.410951,130.306824 
	C2.232892,132.693680 2.501768,135.731186 3.077730,138.709320 
	C7.090237,159.456879 16.435259,176.550720 36.036407,186.594589 
	C51.124043,194.325699 66.912842,195.535507 82.644257,189.820816 
	C90.242149,187.060745 96.931938,181.800858 104.029510,177.674820 
	C104.029510,180.706680 104.029510,184.603149 104.029510,188.673264 
	C116.544807,188.673264 128.591080,188.673264 141.000000,188.673264 
	C141.000000,186.378662 140.999146,184.407501 141.000107,182.436340 
	C141.029617,122.615814 141.056412,62.795284 141.126694,2.974803 
	C141.127472,2.316194 141.696320,1.658252 142.000000,0.999999 
M339.000000,178.468307 
	C339.000000,157.137817 339.018127,135.807297 338.990845,114.476860 
	C338.980347,106.277412 341.707794,99.418861 348.266266,94.204971 
	C354.214386,89.476318 367.965515,87.952843 373.928741,95.255676 
	C377.760590,99.948318 378.913361,105.186630 378.943726,110.773972 
	C379.074951,134.936630 379.000000,159.100433 379.000031,183.263809 
	C379.000031,185.038345 379.000031,186.812881 379.000031,188.624725 
	C391.646393,188.624725 403.692535,188.624725 416.000000,188.624725 
	C416.000000,185.102905 415.961914,181.950470 416.006134,178.799210 
	C416.327942,155.869827 416.357788,132.929962 417.155609,110.016930 
	C417.462708,101.198608 422.780365,94.587845 431.118317,91.576607 
	C438.425537,88.937592 446.614410,88.695091 451.491180,95.588318 
	C454.754517,100.200928 456.623810,106.731758 456.761566,112.460876 
	C457.330200,136.110641 457.000000,159.782043 457.000092,183.445496 
	C457.000092,185.202423 457.000061,186.959351 457.000061,189.128647 
	C469.261627,189.128647 480.799713,189.128647 492.561035,189.128647 
	C492.709778,188.443787 492.965363,187.827530 492.959442,187.213791 
	C492.651398,155.282211 492.949615,123.326027 491.690369,91.431404 
	C491.171844,78.298210 484.551361,67.330208 471.653778,61.157253 
	C463.590118,57.297859 455.245239,57.005108 446.643860,56.945415 
	C432.362427,56.846302 420.920532,62.163902 412.664856,73.908089 
	C410.797882,76.563988 409.689758,76.765854 407.856995,73.765671 
	C405.820618,70.432083 403.733002,66.674431 400.673950,64.498405 
	C386.129608,54.152500 370.065247,54.221012 354.360107,60.657707 
	C347.774902,63.356644 342.594574,69.483391 336.798157,74.033974 
	C336.798157,69.638145 336.798157,64.434227 336.798157,59.282173 
	C324.972107,59.282173 313.710663,59.282173 302.115662,59.282173 
	C302.115662,102.651695 302.115662,145.737686 302.115662,188.679565 
	C314.772339,188.679565 326.701263,188.679565 339.000000,188.679565 
	C339.000000,185.397995 339.000000,182.426117 339.000000,178.468307 
M231.286484,162.984650 
	C223.239624,163.775253 215.466599,163.284653 208.204361,159.078949 
	C199.355438,153.954376 192.948929,142.599106 194.608109,134.629684 
	C225.668198,134.629684 256.696838,134.629684 287.880310,134.629684 
	C288.492340,119.685646 287.486969,105.249031 281.758453,91.705261 
	C274.654358,74.909340 262.243225,63.670769 244.355865,58.979546 
	C231.825531,55.693275 219.064957,56.018436 206.537125,58.188408 
	C191.754303,60.748966 179.067551,68.387383 170.487015,80.482956 
	C155.244736,101.969231 152.187607,125.624672 160.834213,150.889618 
	C169.831848,177.180206 189.207184,190.031448 215.457245,192.732574 
	C234.082596,194.649094 252.127350,191.440491 267.623871,179.189590 
	C277.549866,171.342499 283.443756,161.297119 287.085632,149.005585 
	C275.513306,149.005585 264.529755,148.971130 253.547363,149.068832 
	C252.637695,149.076935 251.443161,149.756729 250.876572,150.501465 
	C246.056320,156.837189 239.948242,161.153458 231.286484,162.984650 
M525.455872,179.976044 
	C544.474243,196.672012 566.752441,201.583649 591.155151,197.304794 
	C607.511353,194.436844 621.376038,186.816040 633.153320,174.614059 
	C650.201233,156.951324 656.523743,125.506386 649.472656,101.483459 
	C648.435974,102.687851 647.379822,104.136620 646.105530,105.357864 
	C639.880127,111.324486 633.404968,117.047005 627.447205,123.266869 
	C625.603516,125.191711 624.464661,128.326279 624.107971,131.051575 
	C622.229370,145.405457 615.028137,156.223022 603.019531,163.975113 
	C594.137451,169.708832 584.366638,171.662354 573.831543,171.064209 
	C558.698059,170.205017 546.619507,163.996323 537.912354,151.573441 
	C530.592651,141.130051 528.450195,129.488297 528.839905,116.768532 
	C529.615479,91.451530 553.194153,66.407036 581.825806,72.047386 
	C588.162720,73.295746 594.321045,75.450882 601.273926,77.386818 
	C605.439453,72.559937 610.053833,66.962959 614.946472,61.620693 
	C619.042725,57.147942 619.119568,56.998962 613.836426,53.955021 
	C601.564026,46.884056 588.529846,43.449825 574.206055,43.885689 
	C551.925537,44.563679 533.398621,52.672489 518.861450,69.636124 
	C501.666687,89.700882 497.451050,113.014153 502.059937,138.369110 
	C505.011078,154.604248 512.540039,168.428970 525.455872,179.976044 
M758.075073,101.668159 
	C768.341309,87.713058 778.607544,73.757957 789.463318,59.001534 
	C775.965881,59.001534 763.974243,58.920570 751.986572,59.100533 
	C750.428955,59.123917 748.368958,60.091057 747.434753,61.307102 
	C743.273682,66.723625 739.530212,72.458420 735.458252,77.946434 
	C731.123535,83.788620 726.588928,89.482506 721.876953,95.583908 
	C713.341431,83.758888 705.244629,72.478058 697.037415,61.278126 
	C696.288025,60.255482 694.839355,59.117966 693.701782,59.103546 
	C681.406433,58.947662 669.108398,59.006252 656.167236,59.006252 
	C657.181458,61.065498 657.767944,62.772747 658.761536,64.195694 
	C672.059448,83.238976 685.456970,102.213028 698.654541,121.325249 
	C699.495789,122.543480 699.661133,125.315056 698.852173,126.423546 
	C686.346863,143.558899 673.614563,160.528412 660.969543,177.562119 
	C658.337219,181.107956 655.844543,184.757477 652.833679,188.998489 
	C666.666382,188.998489 679.324036,189.076996 691.977722,188.889099 
	C693.398010,188.868011 695.225281,187.663498 696.137390,186.458145 
	C704.686951,175.159210 713.078125,163.740417 721.786011,151.990707 
	C729.278687,162.396194 736.860291,172.417542 743.830872,182.847260 
	C746.751221,187.216812 749.577698,189.653625 755.200928,189.141113 
	C761.809570,188.538773 768.515198,189.000000 775.178772,189.000000 
	C779.388123,189.000000 783.597412,189.000000 789.204895,189.000000 
	C786.624939,185.811081 784.903748,183.888611 783.408875,181.803833 
	C770.070435,163.201401 756.749023,144.586441 743.535156,125.895584 
	C742.935425,125.047302 742.889160,123.071228 743.470764,122.240662 
	C748.165955,115.535233 753.073547,108.978561 758.075073,101.668159 
M636.471558,58.101562 
	C634.636658,58.919662 632.331177,59.290401 631.051758,60.636475 
	C626.517090,65.407204 622.325439,70.504578 618.017700,75.490211 
	C612.314697,82.090729 606.670349,88.742577 600.918396,95.300049 
	C592.544861,104.846153 584.097900,114.327820 575.573181,123.960220 
	C568.346619,116.373260 561.258057,108.931175 553.995850,101.306732 
	C548.807007,106.562225 544.682495,110.920280 540.353333,115.064537 
	C537.165405,118.116318 537.126160,120.742249 540.300232,123.875366 
	C551.939331,135.364334 563.514465,146.919724 574.981323,158.580246 
	C577.448669,161.089233 579.161621,161.700012 581.827393,158.784180 
	C590.153564,149.677048 598.743286,140.811417 607.142456,131.770050 
	C610.734314,127.903572 614.092468,123.820679 617.584106,119.860184 
	C622.238403,114.580956 626.885742,109.295029 631.596436,104.066353 
	C638.763611,96.111107 646.037354,88.250633 653.096008,80.200920 
	C653.815430,79.380470 654.007202,76.985222 653.372375,76.264427 
	C648.060913,70.233528 642.498596,64.423561 636.471558,58.101562 
z"/>
<path fill="#17B890" opacity="1.000000" stroke="none" 
	d="
M141.531342,0.999999 
	C141.696320,1.658252 141.127472,2.316194 141.126694,2.974803 
	C141.056412,62.795284 141.029617,122.615814 141.000107,182.436340 
	C140.999146,184.407501 141.000000,186.378662 141.000000,188.673264 
	C128.591080,188.673264 116.544807,188.673264 104.029510,188.673264 
	C104.029510,184.603149 104.029510,180.706680 104.029510,177.674820 
	C96.931938,181.800858 90.242149,187.060745 82.644257,189.820816 
	C66.912842,195.535507 51.124043,194.325699 36.036407,186.594589 
	C16.435259,176.550720 7.090237,159.456879 3.077730,138.709320 
	C2.501768,135.731186 2.232892,132.693680 1.410951,129.841827 
	C1.000000,126.638710 1.000000,123.277428 1.410624,119.616653 
	C2.883949,113.787224 3.646133,108.178726 5.067033,102.742401 
	C8.960258,87.847015 16.426111,74.993996 29.425121,66.410896 
	C41.431229,58.483387 54.785641,54.971191 69.466286,56.885620 
	C79.139687,58.147083 88.168465,60.339874 95.621574,67.061943 
	C97.753883,68.985100 100.161682,70.602821 103.000000,72.789619 
	C103.000000,48.441967 103.000000,24.720984 103.000000,1.000000 
	C115.687561,1.000000 128.375122,1.000000 141.531342,0.999999 
M50.993820,96.521446 
	C40.736847,106.674393 39.691227,119.573959 41.196064,132.693268 
	C42.175819,141.234848 46.269073,148.565399 53.408806,154.288895 
	C61.483875,160.762177 70.721718,161.576111 79.737053,159.576324 
	C85.553261,158.286179 91.634087,154.411301 95.746300,149.978561 
	C105.235809,139.749390 107.009224,126.830643 103.835258,113.617386 
	C101.274155,102.955490 94.858109,94.639618 84.236542,90.759598 
	C72.524887,86.481369 61.472473,88.352692 50.993820,96.521446 
z"/>
<path fill="transparent" opacity="1.000000" stroke="none" 
	d="
M102.531342,1.000000 
	C103.000000,24.720984 103.000000,48.441967 103.000000,72.789619 
	C100.161682,70.602821 97.753883,68.985100 95.621574,67.061943 
	C88.168465,60.339874 79.139687,58.147083 69.466286,56.885620 
	C54.785641,54.971191 41.431229,58.483387 29.425121,66.410896 
	C16.426111,74.993996 8.960258,87.847015 5.067033,102.742401 
	C3.646133,108.178726 2.883949,113.787224 1.410624,119.158585 
	C1.000000,79.745026 1.000000,40.490051 1.000000,1.000000 
	C34.687195,1.000000 68.374939,1.000000 102.531342,1.000000 
z"/>
<path fill="#17B890" opacity="1.000000" stroke="none" 
	d="
M339.000000,178.961273 
	C339.000000,182.426117 339.000000,185.397995 339.000000,188.679565 
	C326.701263,188.679565 314.772339,188.679565 302.115662,188.679565 
	C302.115662,145.737686 302.115662,102.651695 302.115662,59.282173 
	C313.710663,59.282173 324.972107,59.282173 336.798157,59.282173 
	C336.798157,64.434227 336.798157,69.638145 336.798157,74.033974 
	C342.594574,69.483391 347.774902,63.356644 354.360107,60.657707 
	C370.065247,54.221012 386.129608,54.152500 400.673950,64.498405 
	C403.733002,66.674431 405.820618,70.432083 407.856995,73.765671 
	C409.689758,76.765854 410.797882,76.563988 412.664856,73.908089 
	C420.920532,62.163902 432.362427,56.846302 446.643860,56.945415 
	C455.245239,57.005108 463.590118,57.297859 471.653778,61.157253 
	C484.551361,67.330208 491.171844,78.298210 491.690369,91.431404 
	C492.949615,123.326027 492.651398,155.282211 492.959442,187.213791 
	C492.965363,187.827530 492.709778,188.443787 492.561035,189.128647 
	C480.799713,189.128647 469.261627,189.128647 457.000061,189.128647 
	C457.000061,186.959351 457.000092,185.202423 457.000092,183.445496 
	C457.000000,159.782043 457.330200,136.110641 456.761566,112.460876 
	C456.623810,106.731758 454.754517,100.200928 451.491180,95.588318 
	C446.614410,88.695091 438.425537,88.937592 431.118317,91.576607 
	C422.780365,94.587845 417.462708,101.198608 417.155609,110.016930 
	C416.357788,132.929962 416.327942,155.869827 416.006134,178.799210 
	C415.961914,181.950470 416.000000,185.102905 416.000000,188.624725 
	C403.692535,188.624725 391.646393,188.624725 379.000031,188.624725 
	C379.000031,186.812881 379.000031,185.038345 379.000031,183.263809 
	C379.000000,159.100433 379.074951,134.936630 378.943726,110.773972 
	C378.913361,105.186630 377.760590,99.948318 373.928741,95.255676 
	C367.965515,87.952843 354.214386,89.476318 348.266266,94.204971 
	C341.707794,99.418861 338.980347,106.277412 338.990845,114.476860 
	C339.018127,135.807297 339.000000,157.137817 339.000000,178.961273 
z"/>
<path fill="#17B890" opacity="1.000000" stroke="none" 
	d="
M231.706009,162.952271 
	C239.948242,161.153458 246.056320,156.837189 250.876572,150.501465 
	C251.443161,149.756729 252.637695,149.076935 253.547363,149.068832 
	C264.529755,148.971130 275.513306,149.005585 287.085632,149.005585 
	C283.443756,161.297119 277.549866,171.342499 267.623871,179.189590 
	C252.127350,191.440491 234.082596,194.649094 215.457245,192.732574 
	C189.207184,190.031448 169.831848,177.180206 160.834213,150.889618 
	C152.187607,125.624672 155.244736,101.969231 170.487015,80.482956 
	C179.067551,68.387383 191.754303,60.748966 206.537125,58.188408 
	C219.064957,56.018436 231.825531,55.693275 244.355865,58.979546 
	C262.243225,63.670769 274.654358,74.909340 281.758453,91.705261 
	C287.486969,105.249031 288.492340,119.685646 287.880310,134.629684 
	C256.696838,134.629684 225.668198,134.629684 194.608109,134.629684 
	C192.948929,142.599106 199.355438,153.954376 208.204361,159.078949 
	C215.466599,163.284653 223.239624,163.775253 231.706009,162.952271 
M198.802887,109.999908 
	C216.414673,109.999908 234.026443,109.999908 251.699936,109.999908 
	C249.184113,93.400993 235.711807,84.826332 221.710541,85.164970 
	C208.644424,85.480980 196.901367,93.633232 194.411163,109.811729 
	C195.578217,109.874809 196.731949,109.937180 198.802887,109.999908 
z"/>
<path fill="#5E807F" opacity="1.000000" stroke="none" 
	d="
M525.195740,179.726456 
	C512.540039,168.428970 505.011078,154.604248 502.059937,138.369110 
	C497.451050,113.014153 501.666687,89.700882 518.861450,69.636124 
	C533.398621,52.672489 551.925537,44.563679 574.206055,43.885689 
	C588.529846,43.449825 601.564026,46.884056 613.836426,53.955021 
	C619.119568,56.998962 619.042725,57.147942 614.946472,61.620693 
	C610.053833,66.962959 605.439453,72.559937 601.273926,77.386818 
	C594.321045,75.450882 588.162720,73.295746 581.825806,72.047386 
	C553.194153,66.407036 529.615479,91.451530 528.839905,116.768532 
	C528.450195,129.488297 530.592651,141.130051 537.912354,151.573441 
	C546.619507,163.996323 558.698059,170.205017 573.831543,171.064209 
	C584.366638,171.662354 594.137451,169.708832 603.019531,163.975113 
	C615.028137,156.223022 622.229370,145.405457 624.107971,131.051575 
	C624.464661,128.326279 625.603516,125.191711 627.447205,123.266869 
	C633.404968,117.047005 639.880127,111.324486 646.105530,105.357864 
	C647.379822,104.136620 648.435974,102.687851 649.472656,101.483459 
	C656.523743,125.506386 650.201233,156.951324 633.153320,174.614059 
	C621.376038,186.816040 607.511353,194.436844 591.155151,197.304794 
	C566.752441,201.583649 544.474243,196.672012 525.195740,179.726456 
z"/>
<path fill="#17B890" opacity="1.000000" stroke="none" 
	d="
M757.995667,102.022308 
	C753.073547,108.978561 748.165955,115.535233 743.470764,122.240662 
	C742.889160,123.071228 742.935425,125.047302 743.535156,125.895584 
	C756.749023,144.586441 770.070435,163.201401 783.408875,181.803833 
	C784.903748,183.888611 786.624939,185.811081 789.204895,189.000000 
	C783.597412,189.000000 779.388123,189.000000 775.178772,189.000000 
	C768.515198,189.000000 761.809570,188.538773 755.200928,189.141113 
	C749.577698,189.653625 746.751221,187.216812 743.830872,182.847260 
	C736.860291,172.417542 729.278687,162.396194 721.786011,151.990707 
	C713.078125,163.740417 704.686951,175.159210 696.137390,186.458145 
	C695.225281,187.663498 693.398010,188.868011 691.977722,188.889099 
	C679.324036,189.076996 666.666382,188.998489 652.833679,188.998489 
	C655.844543,184.757477 658.337219,181.107956 660.969543,177.562119 
	C673.614563,160.528412 686.346863,143.558899 698.852173,126.423546 
	C699.661133,125.315056 699.495789,122.543480 698.654541,121.325249 
	C685.456970,102.213028 672.059448,83.238976 658.761536,64.195694 
	C657.767944,62.772747 657.181458,61.065498 656.167236,59.006252 
	C669.108398,59.006252 681.406433,58.947662 693.701782,59.103546 
	C694.839355,59.117966 696.288025,60.255482 697.037415,61.278126 
	C705.244629,72.478058 713.341431,83.758888 721.876953,95.583908 
	C726.588928,89.482506 731.123535,83.788620 735.458252,77.946434 
	C739.530212,72.458420 743.273682,66.723625 747.434753,61.307102 
	C748.368958,60.091057 750.428955,59.123917 751.986572,59.100533 
	C763.974243,58.920570 775.965881,59.001534 789.463318,59.001534 
	C778.607544,73.757957 768.341309,87.713058 757.995667,102.022308 
z"/>
<path fill="#17B890" opacity="1.000000" stroke="none" 
	d="
M636.741699,58.324272 
	C642.498596,64.423561 648.060913,70.233528 653.372375,76.264427 
	C654.007202,76.985222 653.815430,79.380470 653.096008,80.200920 
	C646.037354,88.250633 638.763611,96.111107 631.596436,104.066353 
	C626.885742,109.295029 622.238403,114.580956 617.584106,119.860184 
	C614.092468,123.820679 610.734314,127.903572 607.142456,131.770050 
	C598.743286,140.811417 590.153564,149.677048 581.827393,158.784180 
	C579.161621,161.700012 577.448669,161.089233 574.981323,158.580246 
	C563.514465,146.919724 551.939331,135.364334 540.300232,123.875366 
	C537.126160,120.742249 537.165405,118.116318 540.353333,115.064537 
	C544.682495,110.920280 548.807007,106.562225 553.995850,101.306732 
	C561.258057,108.931175 568.346619,116.373260 575.573181,123.960220 
	C584.097900,114.327820 592.544861,104.846153 600.918396,95.300049 
	C606.670349,88.742577 612.314697,82.090729 618.017700,75.490211 
	C622.325439,70.504578 626.517090,65.407204 631.051758,60.636475 
	C632.331177,59.290401 634.636658,58.919662 636.741699,58.324272 
z"/>
<path fill="transparent" opacity="1.000000" stroke="none" 
	d="
M51.250870,96.262024 
	C61.472473,88.352692 72.524887,86.481369 84.236542,90.759598 
	C94.858109,94.639618 101.274155,102.955490 103.835258,113.617386 
	C107.009224,126.830643 105.235809,139.749390 95.746300,149.978561 
	C91.634087,154.411301 85.553261,158.286179 79.737053,159.576324 
	C70.721718,161.576111 61.483875,160.762177 53.408806,154.288895 
	C46.269073,148.565399 42.175819,141.234848 41.196064,132.693268 
	C39.691227,119.573959 40.736847,106.674393 51.250870,96.262024 
z"/>
<path fill="transparent" opacity="1.000000" stroke="none" 
	d="
M198.344284,109.999725 
	C196.731949,109.937180 195.578217,109.874809 194.411163,109.811729 
	C196.901367,93.633232 208.644424,85.480980 221.710541,85.164970 
	C235.711807,84.826332 249.184113,93.400993 251.699936,109.999908 
	C234.026443,109.999908 216.414673,109.999908 198.344284,109.999725 
z"/>
</svg>