<svg xmlns="http://www.w3.org/2000/svg" viewBox="498 42 156 158 " xml:space="preserve"><path fill="#5E807F" d="M525.196 179.726c-12.656-11.297-20.185-25.122-23.136-41.357-4.609-25.355-.393-48.668 16.801-68.733 14.538-16.964 33.065-25.072 55.345-25.75 14.324-.436 27.358 2.998 39.63 10.069 5.284 3.044 5.207 3.193 1.11 7.666-4.892 5.342-9.507 10.939-13.672 15.766-6.953-1.936-13.111-4.091-19.448-5.34-28.632-5.64-52.21 19.405-52.986 44.722-.39 12.72 1.753 24.361 9.072 34.804 8.708 12.423 20.786 18.632 35.92 19.491 10.535.598 20.305-1.355 29.188-7.089 12.008-7.752 19.21-18.57 21.088-32.923.357-2.726 1.496-5.86 3.34-7.785 5.957-6.22 12.432-11.943 18.658-17.91 1.274-1.22 2.33-2.67 3.367-3.874 7.05 24.023.728 55.468-16.32 73.131-11.777 12.202-25.642 19.823-41.998 22.69-24.403 4.28-46.68-.632-65.96-17.578"/><path fill="#17B890" d="M636.742 58.324c5.757 6.1 11.319 11.91 16.63 17.94.635.721.443 3.116-.276 3.937-7.059 8.05-14.332 15.91-21.5 23.865-4.71 5.229-9.358 10.515-14.012 15.794-3.492 3.96-6.85 8.044-10.442 11.91-8.399 9.041-16.988 17.907-25.315 27.014-2.665 2.916-4.378 2.305-6.846-.204-11.467-11.66-23.042-23.216-34.68-34.705-3.175-3.133-3.136-5.759.052-8.81 4.33-4.145 8.454-8.503 13.643-13.758l21.577 22.653c8.525-9.632 16.972-19.114 25.345-28.66 5.752-6.557 11.397-13.21 17.1-19.81 4.307-4.985 8.5-10.083 13.034-14.854 1.28-1.346 3.585-1.716 5.69-2.312"/></svg>